<svg xmlns="http://www.w3.org/2000/svg" viewBox="0 0 24 24" fill="#339933"><path d="M11.998 24c-.321 0-.641-.084-.922-.247l-2.936-1.737c-.438-.245-.224-.332-.08-.383.585-.203.703-.25 1.328-.604.065-.037.151-.024.218.017l2.256 1.339a.29.29 0 0 0 .272 0l8.795-5.076a.277.277 0 0 0 .134-.238V6.921a.28.28 0 0 0-.137-.242l-8.791-5.072a.278.278 0 0 0-.271 0L3.075 6.68a.284.284 0 0 0-.139.241v10.15a.27.27 0 0 0 .139.235l2.409 1.392c1.307.654 2.108-.116 2.108-.89V7.787c0-.142.114-.253.256-.253h1.115c.139 0 .255.112.255.253v10.021c0 1.745-.95 2.745-2.604 2.745-.508 0-.909 0-2.026-.551L2.28 18.675A1.857 1.857 0 0 1 1.2 17.07V6.921c0-.681.363-1.317.951-1.656L10.94.189a1.921 1.921 0 0 1 1.856 0l8.794 5.076c.588.339.951.975.951 1.656v10.15c0 .68-.364 1.315-.951 1.655l-8.794 5.076c-.28.163-.602.248-.923.248zm2.722-7.029c-3.186 0-3.851-1.456-3.851-2.674 0-.141.113-.253.255-.253h1.14c.125 0 .231.089.251.213.168 1.083.689 1.621 2.205 1.621 1.367 0 1.955-.47 1.955-1.24 0-.635-.334-1.065-1.84-1.389-1.492-.322-3.754-1.053-3.754-3.167 0-1.978 1.589-3.067 3.878-3.067 2.781 0 3.927 1.005 4.084 3.082a.26.26 0 0 1-.047.167.257.257 0 0 1-.142.1h-1.138a.252.252 0 0 1-.247-.207c-.26-1.12-.84-1.474-2.557-1.474-1.243 0-1.754.375-1.754 1.07 0 .562.296.841 1.755 1.145 1.985.432 3.834 1.153 3.834 3.282-.002 2.124-1.71 3.223-4.127 3.223z"/></svg>
