<svg xmlns="http://www.w3.org/2000/svg" viewBox="0 0 24 24" fill="#3776AB"><path d="M9.585 11.692h4.328s2.432.039 2.432-2.35V5.349S16.714 3 11.936 3C7.362 3 7.647 4.984 7.647 4.984l.006 2.055h4.363v.617H5.92S3 7.283 3 11.748s2.551 4.306 2.551 4.306h1.523v-2.076s-.082-2.551 2.511-2.551v.265zm-.249-4.83a.814.814 0 1 1 0-1.627.814.814 0 0 1 0 1.627zM14.415 12.308h-4.328s-2.432-.039-2.432 2.35v3.994S7.286 21 12.064 21c4.574 0 4.289-1.984 4.289-1.984l-.006-2.055h-4.363v-.617h6.096S21 16.717 21 12.252s-2.551-4.306-2.551-4.306h-1.523v2.076s.082 2.551-2.511 2.551v-.265zm.249 4.83a.814.814 0 1 1 0 1.627.814.814 0 0 1 0-1.627z"/></svg>
